HIERARCHY
ROOT Hips
{
	OFFSET 0.000000 35.082581 0.000000
	CHANNELS 6 Xposition Yposition Zposition Xrotation Yrotation Zrotation 
	JOINT Spine
	{
		OFFSET 0.000000 6.876099 0.125700
		CHANNELS 3 Xrotation Yrotation Zrotation
		JOINT Spine1
		{
			OFFSET 0.000000 5.730043 0.104720
			CHANNELS 3 Xrotation Yrotation Zrotation
			JOINT Spine1_split
			{
				OFFSET 0.000000 5.730043 0.104720
				CHANNELS 3 Xrotation Yrotation Zrotation
				JOINT Spine2
				{
					OFFSET 0.000000 5.730043 0.104720
					CHANNELS 3 Xrotation Yrotation Zrotation
					JOINT Neck
					{
						OFFSET 0.000000 10.314075 0.188496
						CHANNELS 3 Xrotation Yrotation Zrotation
						JOINT Head
						{
							OFFSET 0.000000 7.643700 -2.377400
							CHANNELS 3 Xrotation Yrotation Zrotation
							JOINT HeadTop_End
							{
								OFFSET 0.000000 43.788605 -13.619600
								CHANNELS 3 Xrotation Yrotation Zrotation
								End Site
								{
									OFFSET 0.000000 0.000000 0.000000
								}
							}
						}
					}
					JOINT LeftShoulder
					{
						OFFSET 2.196100 4.412489 0.087492
						CHANNELS 3 Xrotation Yrotation Zrotation
						JOINT LeftShoulder_split
						{
							OFFSET 2.196100 4.412489 0.087492
							CHANNELS 3 Xrotation Yrotation Zrotation
							JOINT LeftArm
							{
								OFFSET 8.771219 -2.981674 -0.026999
								CHANNELS 3 Xrotation Yrotation Zrotation
								JOINT LeftForeArm
								{
									OFFSET 8.512804 0.000000 -0.000000
									CHANNELS 3 Xrotation Yrotation Zrotation
									JOINT LeftHand
									{
										OFFSET 18.484802 0.000000 -0.000000
										CHANNELS 3 Xrotation Yrotation Zrotation
										JOINT LeftHandThumb1
										{
											OFFSET 2.499420 -1.158070 2.653252
											CHANNELS 3 Xrotation Yrotation Zrotation
											JOINT LeftHandThumb2
											{
												OFFSET 2.370079 -1.368366 1.368366
												CHANNELS 3 Xrotation Yrotation Zrotation
												JOINT LeftHandThumb3
												{
													OFFSET 2.676727 -1.545410 1.545409
													CHANNELS 3 Xrotation Yrotation Zrotation
													JOINT LeftHandThumb4
													{
														OFFSET 1.692226 -0.977005 0.977007
														CHANNELS 3 Xrotation Yrotation Zrotation
														End Site
														{
															OFFSET 0.000000 0.000000 0.000000
														}
													}
												}
											}
										}
										JOINT LeftHandIndex1
										{
											OFFSET 7.924831 -0.457527 2.345128
											CHANNELS 3 Xrotation Yrotation Zrotation
											JOINT LeftHandIndex2
											{
												OFFSET 3.643303 0.000000 0.000000
												CHANNELS 3 Xrotation Yrotation Zrotation
												JOINT LeftHandIndex3
												{
													OFFSET 3.810799 0.000000 0.000000
													CHANNELS 3 Xrotation Yrotation Zrotation
													JOINT LeftHandIndex4
													{
														OFFSET 2.403702 0.000000 0.000000
														CHANNELS 3 Xrotation Yrotation Zrotation
														End Site
														{
															OFFSET 0.000000 0.000000 0.000000
														}
													}
												}
											}
										}
										JOINT LeftHandMiddle1
										{
											OFFSET 8.563995 0.000000 -0.000000
											CHANNELS 3 Xrotation Yrotation Zrotation
											JOINT LeftHandMiddle2
											{
												OFFSET 3.861618 0.000000 0.000000
												CHANNELS 3 Xrotation Yrotation Zrotation
												JOINT LeftHandMiddle3
												{
													OFFSET 3.701603 0.000000 0.000000
													CHANNELS 3 Xrotation Yrotation Zrotation
													JOINT LeftHandMiddle4
													{
														OFFSET 2.322544 0.000000 0.000000
														CHANNELS 3 Xrotation Yrotation Zrotation
														End Site
														{
															OFFSET 0.000000 0.000000 0.000000
														}
													}
												}
											}
										}
										JOINT LeftHandRing1
										{
											OFFSET 8.426460 -0.424637 -3.286992
											CHANNELS 3 Xrotation Yrotation Zrotation
											JOINT LeftHandRing2
											{
												OFFSET 3.126408 0.000000 0.000000
												CHANNELS 3 Xrotation Yrotation Zrotation
												JOINT LeftHandRing3
												{
													OFFSET 3.085026 0.000000 0.000000
													CHANNELS 3 Xrotation Yrotation Zrotation
													JOINT LeftHandRing4
													{
														OFFSET 1.644005 0.000000 0.000000
														CHANNELS 3 Xrotation Yrotation Zrotation
														End Site
														{
															OFFSET 0.000000 0.000000 0.000000
														}
													}
												}
											}
										}
									}
								}
							}
						}
					}
					JOINT RightShoulder
					{
						OFFSET -2.196100 4.412496 0.070690
						CHANNELS 3 Xrotation Yrotation Zrotation
						JOINT RightShoulder_split
						{
							OFFSET -2.196100 4.412496 0.070690
							CHANNELS 3 Xrotation Yrotation Zrotation
							JOINT RightArm
							{
								OFFSET -8.771282 -2.981682 -0.094208
								CHANNELS 3 Xrotation Yrotation Zrotation
								JOINT RightForeArm
								{
									OFFSET -8.494598 0.000000 0.000000
									CHANNELS 3 Xrotation Yrotation Zrotation
									JOINT RightHand
									{
										OFFSET -18.483803 0.000000 0.000001
										CHANNELS 3 Xrotation Yrotation Zrotation
										JOINT RightHandThumb1
										{
											OFFSET -2.527351 -1.008072 2.575253
											CHANNELS 3 Xrotation Yrotation Zrotation
											JOINT RightHandThumb2
											{
												OFFSET -2.321518 -1.340328 1.340329
												CHANNELS 3 Xrotation Yrotation Zrotation
												JOINT RightHandThumb3
												{
													OFFSET -2.657753 -1.534454 1.534455
													CHANNELS 3 Xrotation Yrotation Zrotation
													JOINT RightHandThumb4
													{
														OFFSET -1.807510 -1.043568 1.043567
														CHANNELS 3 Xrotation Yrotation Zrotation
														End Site
														{
															OFFSET 0.000000 0.000000 0.000000
														}
													}
												}
											}
										}
										JOINT RightHandIndex1
										{
											OFFSET -8.811420 0.015533 2.887987
											CHANNELS 3 Xrotation Yrotation Zrotation
											JOINT RightHandIndex2
											{
												OFFSET -3.537502 0.000000 0.000000
												CHANNELS 3 Xrotation Yrotation Zrotation
												JOINT RightHandIndex3
												{
													OFFSET -3.356201 0.000000 0.000000
													CHANNELS 3 Xrotation Yrotation Zrotation
													JOINT RightHandIndex4
													{
														OFFSET -1.933098 0.000000 0.000000
														CHANNELS 3 Xrotation Yrotation Zrotation
														End Site
														{
															OFFSET 0.000000 0.000000 0.000000
														}
													}
												}
											}
										}
										JOINT RightHandMiddle1
										{
											OFFSET -8.178135 0.000000 0.000000
											CHANNELS 3 Xrotation Yrotation Zrotation
											JOINT RightHandMiddle2
											{
												OFFSET -3.901302 0.000000 0.000000
												CHANNELS 3 Xrotation Yrotation Zrotation
												JOINT RightHandMiddle3
												{
													OFFSET -3.909599 0.000000 0.000000
													CHANNELS 3 Xrotation Yrotation Zrotation
													JOINT RightHandMiddle4
													{
														OFFSET -2.376003 0.000000 0.000000
														CHANNELS 3 Xrotation Yrotation Zrotation
														End Site
														{
															OFFSET 0.000000 0.000000 0.000000
														}
													}
												}
											}
										}
										JOINT RightHandRing1
										{
											OFFSET -7.559013 0.014137 -2.865403
											CHANNELS 3 Xrotation Yrotation Zrotation
											JOINT RightHandRing2
											{
												OFFSET -3.449306 0.000000 0.000000
												CHANNELS 3 Xrotation Yrotation Zrotation
												JOINT RightHandRing3
												{
													OFFSET -3.362106 0.000000 0.000000
													CHANNELS 3 Xrotation Yrotation Zrotation
													JOINT RightHandRing4
													{
														OFFSET -2.076401 0.000000 0.000000
														CHANNELS 3 Xrotation Yrotation Zrotation
														End Site
														{
															OFFSET 0.000000 0.000000 0.000000
														}
													}
												}
											}
										}
									}
								}
							}
						}
					}
				}
			}
		}
	}
	JOINT LeftUpLeg
	{
		OFFSET 10.205400 -3.823500 0.155100
		CHANNELS 3 Xrotation Yrotation Zrotation
		JOINT LeftLeg
		{
			OFFSET 0.708757 -12.982077 0.567790
			CHANNELS 3 Xrotation Yrotation Zrotation
			JOINT LeftFoot
			{
				OFFSET -0.708756 -10.717838 -2.184338
				CHANNELS 3 Xrotation Yrotation Zrotation
				JOINT LeftToeBase
				{
					OFFSET 0.108149 -7.191104 7.560241
					CHANNELS 3 Xrotation Yrotation Zrotation
					JOINT LeftToe_End
					{
						OFFSET 0.070230 0.081724 4.490308
						CHANNELS 3 Xrotation Yrotation Zrotation
						End Site
						{
							OFFSET 0.000000 0.000000 0.000000
						}
					}
				}
			}
		}
	}
	JOINT RightUpLeg
	{
		OFFSET -10.205400 -3.823500 0.005500
		CHANNELS 3 Xrotation Yrotation Zrotation
		JOINT RightLeg
		{
			OFFSET -0.708756 -12.982134 0.610632
			CHANNELS 3 Xrotation Yrotation Zrotation
			JOINT RightFoot
			{
				OFFSET 0.708754 -10.717769 -1.945823
				CHANNELS 3 Xrotation Yrotation Zrotation
				JOINT RightToeBase
				{
					OFFSET -0.108140 -7.191069 7.372968
					CHANNELS 3 Xrotation Yrotation Zrotation
					JOINT RightToe_End
					{
						OFFSET -0.070227 0.081735 4.479403
						CHANNELS 3 Xrotation Yrotation Zrotation
						End Site
						{
							OFFSET 0.000000 0.000000 0.000000
						}
					}
				}
			}
		}
	}
}
MOTION
Frames: 5
Frame Time: 0.016667
0.633360 28.598579 -0.651480 9.498626 -61.495581 10.123697 15.063996 -0.448765 -4.270516 5.872399 0.563935 -2.798214 0.000000 0.000000 0.000000 5.868714 0.648184 -2.860162 -3.632892 1.437145 3.747496 -20.005957 54.836775 2.407377 0.000000 -0.000000 -0.000000 1.828098 -3.192677 -12.271605 0.000000 0.000000 0.000000 -39.387426 26.350489 -34.911108 0.429387 -46.808448 0.416229 -10.315076 -0.130720 0.363009 40.109920 -15.297160 -0.360484 5.639803 28.097933 11.338838 1.088584 40.896270 22.734052 0.000001 0.000002 0.000003 6.882229 2.840061 -61.140411 8.247987 7.640096 -89.897884 2.146110 8.173444 -41.827754 -0.000002 0.000001 0.000002 -2.345521 4.688870 -62.655224 8.754133 9.897103 -87.051307 1.995392 4.929285 -37.483436 0.000000 0.000002 0.000003 -9.042483 10.045681 -60.766171 8.524085 9.508834 -66.893035 6.576576 9.896772 -70.385093 0.000001 -0.000004 -0.000000 0.632604 7.257361 8.700333 0.000000 0.000000 0.000000 7.936009 -9.680156 53.429903 -22.867437 36.194706 17.955459 -27.369922 10.432886 -17.813533 -2.346181 -6.100558 10.731429 2.364049 -23.806317 -8.771057 -5.012463 13.984838 5.861518 0.000000 0.000005 0.000003 -0.054757 0.532100 0.738728 0.019777 -0.087309 5.078512 -0.003991 -2.004388 -2.834041 0.000000 0.000001 0.000002 0.348255 -5.918516 2.583820 1.432613 -4.204227 24.052100 0.133898 1.746466 -5.752996 -0.000000 -0.000001 0.000001 1.205823 -11.756064 4.154784 1.794845 -3.771889 26.865395 1.319782 -3.995358 19.486919 0.000000 0.000000 0.000001 -41.998147 3.740779 34.587439 44.708461 -12.167223 0.011671 -7.403613 0.866827 -25.254949 -1.836430 -0.000606 -0.000033 -0.000000 -0.000000 0.000000 -27.932077 -15.142642 -45.127804 44.468835 11.515031 -2.764036 -21.027506 -6.257981 32.367809 -0.001678 -0.000462 -0.000007 0.000000 -0.000000 0.000000 
0.662662 28.417034 -0.855090 9.911150 -55.199905 8.168616 18.427466 -0.654082 -3.561776 7.295535 -0.352593 -0.796539 0.000000 0.000000 0.000000 7.297483 -0.185254 -0.836842 -9.419019 1.041060 2.964128 -33.847136 49.164429 3.507836 -0.000000 0.000000 0.000000 3.590621 -8.212477 -8.338679 0.000000 0.000000 0.000000 -17.336436 15.897240 -30.473756 -15.109888 -56.232005 -14.869679 -11.534127 1.944481 -6.382516 40.109927 -15.297161 -0.360487 5.639800 28.097926 11.338835 1.088581 40.896277 22.734054 -0.000001 0.000000 0.000001 6.882231 2.840059 -61.140411 8.247987 7.640091 -89.897884 2.146111 8.173443 -41.827747 0.000001 -0.000000 0.000003 -2.345522 4.688869 -62.655217 8.754136 9.897097 -87.051307 1.995391 4.929283 -37.483429 0.000001 -0.000001 -0.000001 -9.042484 10.045677 -60.766171 8.524083 9.508824 -66.893042 6.576574 9.896777 -70.385093 -0.000000 0.000000 -0.000002 2.195471 10.570694 6.739744 0.000000 0.000000 0.000000 12.334680 -2.089138 49.300606 -23.008780 37.026790 18.727880 -25.845444 16.676411 -17.494129 0.214165 -4.319356 5.919515 1.314350 -24.654507 -5.837883 -5.255349 11.018663 5.600838 0.000002 -0.000002 -0.000002 0.333199 0.054686 1.470561 -0.415181 -0.423077 6.838791 -0.465097 -2.292377 -0.611730 -0.000001 -0.000001 -0.000000 -0.032237 -5.717575 3.568904 1.219209 -4.302306 24.290258 -0.087827 1.409209 -3.505388 -0.000004 0.000001 0.000001 0.521321 -11.018107 4.548193 2.135408 -3.822159 27.589381 1.354178 -3.794894 18.081357 0.000002 0.000000 0.000001 -49.214467 -1.223472 33.391784 45.461732 -12.664599 0.433175 -3.384048 -2.728520 -24.903307 -1.836437 -0.000632 -0.000068 0.000000 0.000001 0.000000 -23.506629 -17.549502 -43.240876 45.495105 8.910725 -0.482611 -23.143927 -7.344651 31.720348 -0.177521 -0.001144 0.225555 -0.000000 -0.000000 0.000000 
0.466765 27.963615 -1.050602 8.501778 -43.250073 6.037689 19.043616 -0.523127 -1.746694 8.434702 -1.248267 0.996152 0.000000 0.000000 0.000000 8.432943 -1.053496 0.978030 -4.999485 -0.762672 5.645551 -37.843264 41.961028 5.245534 -0.000000 0.000000 -0.000000 3.416888 -8.568160 -4.408983 0.000000 0.000000 0.000000 -14.803042 11.945503 -33.781743 -16.458854 -59.708844 -14.596258 -9.671805 4.965332 -21.142615 40.109938 -15.297156 -0.360482 5.639800 28.097926 11.338835 1.088572 40.896273 22.734040 -0.000002 -0.000002 -0.000000 6.882235 2.840060 -61.140411 8.247986 7.640095 -89.897884 2.146110 8.173444 -41.827747 -0.000001 0.000003 0.000001 -2.345519 4.688869 -62.655217 8.754137 9.897100 -87.051307 1.995394 4.929282 -37.483433 0.000002 0.000001 -0.000001 -9.042477 10.045677 -60.766171 8.524088 9.508829 -66.893042 6.576569 9.896778 -70.385093 -0.000002 0.000000 0.000000 2.138322 11.266876 6.137829 0.000000 0.000000 0.000000 17.411428 3.777417 45.935939 -16.048081 34.606796 15.226657 -24.851881 19.175847 -10.594051 3.146355 -2.974219 1.047980 0.338249 -25.670436 -2.901086 -5.541131 8.094001 5.279794 0.000002 -0.000000 -0.000000 0.732148 -0.412266 2.206429 -0.830869 -0.784095 8.596226 -0.906475 -2.618081 1.613794 -0.000001 0.000000 -0.000000 -0.419558 -5.531665 4.555025 1.000265 -4.405250 24.527534 -0.286465 1.057023 -1.251756 -0.000005 0.000000 -0.000000 -0.173228 -10.295282 4.954421 2.478533 -3.867636 28.313813 1.403054 -3.593196 16.677550 -0.000001 -0.000000 -0.000001 -57.760178 -4.277706 26.248289 40.801795 -15.728455 0.488699 6.106762 -7.083358 -23.267357 -1.836422 -0.000657 -0.000193 -0.000000 0.000000 -0.000000 -11.895713 -24.093900 -41.980467 42.095955 4.397615 2.449614 -24.874635 -10.103413 36.389814 -2.695830 0.001367 -0.047464 0.000000 -0.000001 0.000000 
0.002133 27.456535 -1.079258 5.198185 -30.069980 5.834895 17.948252 0.513447 -1.923047 7.663507 -0.055109 1.868095 0.000000 0.000000 0.000000 7.656348 0.145387 1.807649 11.921183 -3.328162 12.513456 -29.858216 34.396559 5.825767 -0.000000 0.000000 -0.000003 1.265606 -7.131532 -5.657163 0.000000 0.000000 0.000000 -23.592604 7.588120 -38.951322 11.776966 -59.937130 11.769782 -8.770872 10.933204 -13.361125 40.109938 -15.297156 -0.360487 5.639805 28.097933 11.338841 1.088579 40.896270 22.734052 -0.000002 -0.000002 0.000001 6.882235 2.840061 -61.140411 8.247986 7.640091 -89.897878 2.146112 8.173441 -41.827751 0.000000 0.000000 -0.000001 -2.345517 4.688869 -62.655224 8.754146 9.897102 -87.051307 1.995395 4.929283 -37.483436 -0.000001 0.000001 0.000002 -9.042478 10.045680 -60.766171 8.524089 9.508831 -66.893042 6.576571 9.896777 -70.385093 -0.000003 -0.000001 0.000001 0.254908 10.476045 11.937819 0.000000 0.000000 0.000000 21.048090 3.074634 42.497734 -10.393998 28.226108 14.523716 -24.135621 14.464044 8.084077 6.401482 -2.095825 -3.851039 -0.551819 -26.850023 0.038777 -5.855356 5.180050 4.884400 -0.000001 -0.000000 -0.000000 1.142053 -0.868713 2.949707 -1.226191 -1.169348 10.346294 -1.326167 -2.978470 3.837909 0.000001 -0.000001 0.000000 -0.813165 -5.361013 5.543583 0.782480 -4.510075 24.763254 -0.458282 0.691597 1.004498 -0.000004 0.000000 0.000000 -0.877463 -9.587928 5.372623 2.822596 -3.905261 29.040069 1.466622 -3.390919 15.274017 0.000001 -0.000002 -0.000001 -59.674140 -0.018572 16.374289 27.984960 -18.557993 -0.002466 18.721335 -13.808902 -21.413640 -1.836425 -0.000858 -0.000403 -0.000000 0.000003 -0.000000 2.966069 -30.659947 -39.055223 39.491433 -0.674996 3.550686 -27.796937 -13.197640 38.579586 -4.579081 -0.214590 2.875156 0.000000 0.000001 -0.000000 
-0.565963 27.186741 -0.867112 -1.025732 -18.710613 4.470458 16.776860 2.699460 -2.002316 5.284545 2.633935 2.560244 0.000000 0.000000 0.000000 5.269078 2.814638 2.432387 37.491380 -0.604653 24.738079 -18.056894 27.309680 9.709664 0.000002 -0.000002 0.000001 0.907816 -6.380208 -5.024942 0.000000 0.000000 0.000000 -28.312114 3.762128 -48.592927 23.186785 -54.716529 21.547966 -5.821139 5.298344 15.915287 40.109931 -15.297156 -0.360479 5.639799 28.097930 11.338840 1.088587 40.896270 22.734051 -0.000006 -0.000000 -0.000002 6.882236 2.840057 -61.140411 8.247982 7.640095 -89.897878 2.146111 8.173439 -41.827747 -0.000000 -0.000000 -0.000000 -2.345515 4.688866 -62.655224 8.754139 9.897096 -87.051307 1.995392 4.929285 -37.483436 0.000000 -0.000001 -0.000000 -9.042479 10.045677 -60.766178 8.524080 9.508825 -66.893042 6.576574 9.896784 -70.385099 -0.000001 0.000001 -0.000000 -0.419575 12.460909 21.415915 0.000000 0.000000 0.000000 25.186324 -1.964544 37.765199 1.735756 22.440341 11.670346 -19.014516 6.084774 14.201891 9.931794 -1.720446 -8.735648 -1.344069 -28.183551 2.984586 -6.208896 2.290140 4.415859 -0.000002 -0.000003 0.000007 1.562569 -1.314567 3.699306 -1.598042 -1.577361 12.093948 -1.722127 -3.373211 6.055688 -0.000000 0.000000 -0.000000 -1.212821 -5.206010 6.532394 0.565728 -4.616826 25.000179 -0.607977 0.315007 3.265874 0.000003 -0.000000 0.000006 -1.591807 -8.896310 5.803056 3.167414 -3.934985 29.767112 1.544630 -3.188101 13.871058 0.000002 -0.000000 -0.000001 -53.303568 6.946096 8.406114 12.934944 -23.996741 -0.751982 30.199931 -20.597139 -20.272152 -1.837230 -0.001054 -0.000659 0.000000 -0.000001 -0.000000 22.840904 -32.766688 -28.807095 37.087951 -8.195848 1.755086 -27.736584 -14.618808 38.052364 -13.686952 -2.216806 9.761817 -0.000000 -0.000001 0.000000 
